<svg width="200" height="200" viewBox="0 0 200 200" fill="none" xmlns="http://www.w3.org/2000/svg">
<rect width="200" height="200" fill="url(#paint0_linear_843_16324)"/>
<path d="M118.994 51.2599L93.9706 65.76C93.662 65.9388 93.472 66.2685 93.472 66.6252V91.0708C93.472 91.4347 93.2744 91.7698 92.956 91.9459L81.132 98.4851C80.4655 98.8537 79.648 98.3716 79.648 97.61V70.0383C79.648 69.2766 78.8305 68.7946 78.164 69.1632L52.516 83.3476C52.1976 83.5237 52 83.8588 52 84.2227V114.448C52 115.206 52.8091 115.688 53.4754 115.328L63.9646 109.66C64.6309 109.3 65.44 109.782 65.44 110.539V147.275C65.44 148.043 66.2703 148.524 66.937 148.143L92.969 133.233C93.2801 133.055 93.472 132.724 93.472 132.365V97.969C93.472 97.6132 93.661 97.2843 93.9683 97.1051L118.848 82.5984C119.515 82.2097 120.352 82.6906 120.352 83.4623V147.263C120.352 148.034 121.188 148.515 121.854 148.128L147.502 133.234C147.81 133.055 148 132.726 148 132.369V68.5464C148 68.4118 147.972 68.2754 147.919 68.1517C141.743 53.7416 135.283 50.2462 119.441 51.1269C119.285 51.1356 119.129 51.1815 118.994 51.2599Z" fill="white"/>
<defs>
<linearGradient id="paint0_linear_843_16324" x1="100" y1="0" x2="100" y2="200" gradientUnits="userSpaceOnUse">
<stop offset="0.389423" stop-color="#000000"/>
<stop offset="1" stop-color="#05397B" stop-opacity="0.82"/>
</linearGradient>
</defs>
</svg>
