<svg width="369" height="80" viewBox="0 0 369 80" fill="none" xmlns="http://www.w3.org/2000/svg">
<path d="M53.9638 1.72561L33.8928 13.3861C33.6023 13.5549 33.4235 13.8653 33.4235 14.201V33.7985C33.4235 34.141 33.2376 34.4566 32.9378 34.6228L23.6837 39.754C23.0548 40.1027 22.2823 39.6483 22.2823 38.9297V17.1133C22.2823 16.3947 21.5099 15.9403 20.881 16.289L0.485679 27.5977C0.185936 27.764 0 28.0795 0 28.422V52.538C0 53.2525 0.764627 53.7073 1.39331 53.3667L9.43839 49.0078C10.0671 48.6672 10.8317 49.122 10.8317 49.8365V79.0559C10.8317 79.7808 11.6164 80.2344 12.2454 79.8732L32.9502 67.984C33.243 67.8158 33.4235 67.5041 33.4235 67.1667V39.5272C33.4235 39.1924 33.6013 38.8827 33.8906 38.7136L53.6669 27.1528C54.2959 26.7851 55.0869 27.2383 55.0869 27.9664V79.0446C55.0869 79.772 55.8765 80.2253 56.5055 79.8591L76.9008 67.9849C77.1909 67.816 77.3693 67.5058 77.3693 67.1704V15.7036C77.3693 15.5771 77.3426 15.449 77.2929 15.3327C72.3238 3.72035 67.1205 0.895318 54.3868 1.59956C54.239 1.60774 54.0918 1.65126 53.9638 1.72561Z" fill="#000000"/>
<path d="M137.516 48.6335H130.309L108.626 15.8532V48.6335H101.42V4.67387H108.626L130.309 37.3909V4.67387H137.516V48.6335Z" fill="white"/>
<path d="M160.201 49.2019C156.914 49.2019 153.943 48.465 151.288 46.9913C148.633 45.4755 146.547 43.3701 145.03 40.6753C143.512 37.9383 142.754 34.7803 142.754 31.2012C142.754 27.6642 143.533 24.5273 145.093 21.7903C146.652 19.0534 148.78 16.948 151.478 15.4743C154.175 14.0005 157.188 13.2637 160.518 13.2637C163.847 13.2637 166.86 14.0005 169.558 15.4743C172.255 16.948 174.383 19.0534 175.942 21.7903C177.502 24.5273 178.281 27.6642 178.281 31.2012C178.281 34.7382 177.481 37.8752 175.879 40.6121C174.278 43.3491 172.086 45.4755 169.305 46.9913C166.565 48.465 163.531 49.2019 160.201 49.2019ZM160.201 42.949C162.056 42.949 163.784 42.5069 165.385 41.6227C167.029 40.7384 168.356 39.4121 169.368 37.6436C170.379 35.8751 170.885 33.7276 170.885 31.2012C170.885 28.6748 170.4 26.5484 169.431 24.822C168.462 23.0535 167.176 21.7272 165.575 20.8429C163.973 19.9587 162.245 19.5165 160.391 19.5165C158.537 19.5165 156.809 19.9587 155.207 20.8429C153.648 21.7272 152.405 23.0535 151.478 24.822C150.55 26.5484 150.087 28.6748 150.087 31.2012C150.087 34.9487 151.035 37.8541 152.932 39.9173C154.87 41.9385 157.294 42.949 160.201 42.949Z" fill="white"/>
<path d="M196.984 42.1911L206.845 13.8321H214.495L201.219 48.6335H192.622L179.409 13.8321H187.122L196.984 42.1911Z" fill="white"/>
<path d="M215.653 31.0749C215.653 27.58 216.369 24.4852 217.802 21.7903C219.277 19.0955 221.258 17.0112 223.744 15.5374C226.273 14.0216 229.055 13.2637 232.089 13.2637C234.828 13.2637 237.209 13.8111 239.232 14.9058C241.297 15.9585 242.941 17.2849 244.163 18.8849V13.8321H251.433V48.6335H244.163V43.4543C242.941 45.0965 241.276 46.465 239.169 47.5597C237.062 48.6545 234.66 49.2019 231.963 49.2019C228.97 49.2019 226.231 48.444 223.744 46.9281C221.258 45.3702 219.277 43.2227 217.802 40.4858C216.369 37.7067 215.653 34.5698 215.653 31.0749ZM244.163 31.2012C244.163 28.8011 243.658 26.7168 242.646 24.9483C241.677 23.1798 240.391 21.8324 238.79 20.9061C237.188 19.9797 235.461 19.5165 233.606 19.5165C231.752 19.5165 230.024 19.9797 228.422 20.9061C226.821 21.7903 225.514 23.1167 224.503 24.8852C223.534 26.6116 223.049 28.6748 223.049 31.0749C223.049 33.475 223.534 35.5803 224.503 37.3909C225.514 39.2015 226.821 40.5911 228.422 41.5595C230.066 42.4859 231.794 42.949 233.606 42.949C235.461 42.949 237.188 42.4859 238.79 41.5595C240.391 40.6332 241.677 39.2857 242.646 37.5172C243.658 35.7067 244.163 33.6013 244.163 31.2012Z" fill="white"/>
<path d="M266.218 42.8227H281.074V48.6335H259.012V4.73703H266.218V42.8227Z" fill="white"/>
<path d="M288.881 9.22141C287.574 9.22141 286.478 8.77929 285.593 7.89504C284.708 7.0108 284.266 5.91602 284.266 4.61071C284.266 3.30539 284.708 2.21061 285.593 1.32637C286.478 0.442123 287.574 0 288.881 0C290.145 0 291.22 0.442123 292.105 1.32637C292.99 2.21061 293.432 3.30539 293.432 4.61071C293.432 5.91602 292.99 7.0108 292.105 7.89504C291.22 8.77929 290.145 9.22141 288.881 9.22141ZM292.421 13.8321V48.6335H285.214V13.8321H292.421Z" fill="white"/>
<path d="M317.569 13.2637C320.309 13.2637 322.753 13.8321 324.903 14.969C327.094 16.1059 328.801 17.7902 330.023 20.0218C331.245 22.2535 331.856 24.9483 331.856 28.1064V48.6335H324.713V29.1801C324.713 26.0642 323.933 23.6851 322.374 22.043C320.815 20.3587 318.686 19.5165 315.989 19.5165C313.292 19.5165 311.142 20.3587 309.541 22.043C307.982 23.6851 307.202 26.0642 307.202 29.1801V48.6335H299.995V13.8321H307.202V17.8112C308.382 16.3796 309.878 15.2638 311.69 14.4637C313.545 13.6637 315.504 13.2637 317.569 13.2637Z" fill="white"/>
<path d="M352.943 31.2644L369 48.6335H359.265L346.369 33.6645V48.6335H339.162V1.89481H346.369V29.0538L359.012 13.8321H369L352.943 31.2644Z" fill="white"/>
<path d="M212.592 56.7614V71.2581H211.138V56.7614H212.592Z" fill="white"/>
<path d="M224.97 59.7271C226.326 59.7271 227.433 60.1488 228.291 60.9922C229.149 61.8217 229.578 63.0315 229.578 64.6215V71.2581H228.146V64.7874C228.146 63.5569 227.835 62.6167 227.212 61.9669C226.603 61.3171 225.766 60.9922 224.7 60.9922C223.607 60.9922 222.735 61.3378 222.085 62.0291C221.434 62.7204 221.109 63.7367 221.109 65.0778V71.2581H219.656V59.9345H221.109V61.8632C221.469 61.1719 221.988 60.6465 222.666 60.287C223.344 59.9137 224.112 59.7271 224.97 59.7271Z" fill="white"/>
<path d="M241.88 59.7271C243.236 59.7271 244.343 60.1488 245.201 60.9922C246.059 61.8217 246.488 63.0315 246.488 64.6215V71.2581H245.056V64.7874C245.056 63.5569 244.744 62.6167 244.122 61.9669C243.513 61.3171 242.675 60.9922 241.61 60.9922C240.517 60.9922 239.645 61.3378 238.994 62.0291C238.344 62.7204 238.019 63.7367 238.019 65.0778V71.2581H236.566V59.9345H238.019V61.8632C238.379 61.1719 238.898 60.6465 239.576 60.287C240.254 59.9137 241.022 59.7271 241.88 59.7271Z" fill="white"/>
<path d="M258.437 71.424C257.371 71.424 256.409 71.1889 255.551 70.7189C254.707 70.2349 254.036 69.5575 253.538 68.6864C253.054 67.8015 252.811 66.7715 252.811 65.5963C252.811 64.421 253.06 63.3979 253.559 62.5269C254.057 61.642 254.735 60.9645 255.593 60.4944C256.451 60.0105 257.413 59.7685 258.478 59.7685C259.544 59.7685 260.505 60.0105 261.363 60.4944C262.235 60.9645 262.913 61.642 263.398 62.5269C263.896 63.3979 264.145 64.421 264.145 65.5963C264.145 66.7577 263.896 67.7808 263.398 68.6657C262.9 69.5505 262.215 70.2349 261.343 70.7189C260.471 71.1889 259.502 71.424 258.437 71.424ZM258.437 70.1589C259.184 70.1589 259.876 69.993 260.512 69.6612C261.149 69.3155 261.661 68.8039 262.048 68.1265C262.45 67.4351 262.65 66.5918 262.65 65.5963C262.65 64.6008 262.457 63.7643 262.069 63.0868C261.682 62.3955 261.17 61.8839 260.533 61.5521C259.897 61.2065 259.205 61.0336 258.457 61.0336C257.71 61.0336 257.018 61.2065 256.382 61.5521C255.745 61.8839 255.233 62.3955 254.846 63.0868C254.472 63.7643 254.285 64.6008 254.285 65.5963C254.285 66.5918 254.472 67.4351 254.846 68.1265C255.233 68.8039 255.738 69.3155 256.361 69.6612C256.997 69.993 257.689 70.1589 258.437 70.1589Z" fill="white"/>
<path d="M274.595 69.8478L278.414 59.9345H279.95L275.404 71.2581H273.764L269.219 59.9345H270.775L274.595 69.8478Z" fill="white"/>
<path d="M285.029 65.5755C285.029 64.4141 285.258 63.3979 285.715 62.5269C286.185 61.642 286.828 60.9645 287.645 60.4944C288.475 60.0105 289.409 59.7685 290.447 59.7685C291.527 59.7685 292.454 60.0174 293.229 60.5152C294.018 61.0129 294.585 61.6489 294.931 62.4232V59.9345H296.384V71.2581H294.931V68.7486C294.571 69.5229 293.997 70.1658 293.208 70.6774C292.433 71.1751 291.506 71.424 290.426 71.424C289.402 71.424 288.475 71.182 287.645 70.6981C286.828 70.2142 286.185 69.5298 285.715 68.6449C285.258 67.7601 285.029 66.7369 285.029 65.5755ZM294.931 65.5963C294.931 64.6837 294.744 63.8818 294.37 63.1905C293.997 62.4992 293.485 61.9669 292.834 61.5936C292.198 61.2203 291.492 61.0336 290.717 61.0336C289.914 61.0336 289.195 61.2134 288.558 61.5729C287.922 61.9323 287.417 62.4577 287.043 63.149C286.683 63.8265 286.503 64.6354 286.503 65.5755C286.503 66.5019 286.683 67.3176 287.043 68.0228C287.417 68.7141 287.922 69.2464 288.558 69.6197C289.195 69.9792 289.914 70.1589 290.717 70.1589C291.492 70.1589 292.198 69.9722 292.834 69.5989C293.485 69.2256 293.997 68.6933 294.37 68.002C294.744 67.3107 294.931 66.5088 294.931 65.5963Z" fill="white"/>
<path d="M305.364 61.1581V68.1887C305.364 68.88 305.496 69.357 305.759 69.6197C306.021 69.8824 306.485 70.0137 307.149 70.0137H308.478V71.2581H306.921C305.897 71.2581 305.136 71.023 304.638 70.5529C304.139 70.069 303.89 69.2809 303.89 68.1887V61.1581H302.313V59.9345H303.89V57.0932H305.364V59.9345H308.478V61.1581H305.364Z" fill="white"/>
<path d="M315.375 57.7983C315.084 57.7983 314.835 57.6946 314.628 57.4872C314.42 57.2798 314.316 57.0241 314.316 56.7199C314.316 56.4157 314.42 56.1668 314.628 55.9733C314.835 55.7659 315.084 55.6622 315.375 55.6622C315.665 55.6622 315.914 55.7659 316.122 55.9733C316.33 56.1668 316.433 56.4157 316.433 56.7199C316.433 57.0241 316.33 57.2798 316.122 57.4872C315.914 57.6946 315.665 57.7983 315.375 57.7983ZM316.101 59.9345V71.2581H314.648V59.9345H316.101Z" fill="white"/>
<path d="M328.127 71.424C327.061 71.424 326.1 71.1889 325.242 70.7189C324.397 70.2349 323.726 69.5575 323.228 68.6864C322.744 67.8015 322.502 66.7715 322.502 65.5963C322.502 64.421 322.751 63.3979 323.249 62.5269C323.747 61.642 324.425 60.9645 325.283 60.4944C326.141 60.0105 327.103 59.7685 328.168 59.7685C329.234 59.7685 330.196 60.0105 331.054 60.4944C331.925 60.9645 332.604 61.642 333.088 62.5269C333.586 63.3979 333.835 64.421 333.835 65.5963C333.835 66.7577 333.586 67.7808 333.088 68.6657C332.59 69.5505 331.905 70.2349 331.033 70.7189C330.161 71.1889 329.192 71.424 328.127 71.424ZM328.127 70.1589C328.874 70.1589 329.566 69.993 330.203 69.6612C330.839 69.3155 331.351 68.8039 331.739 68.1265C332.14 67.4351 332.341 66.5918 332.341 65.5963C332.341 64.6008 332.147 63.7643 331.759 63.0868C331.372 62.3955 330.86 61.8839 330.223 61.5521C329.587 61.2065 328.895 61.0336 328.148 61.0336C327.4 61.0336 326.708 61.2065 326.072 61.5521C325.435 61.8839 324.923 62.3955 324.536 63.0868C324.162 63.7643 323.975 64.6008 323.975 65.5963C323.975 66.5918 324.162 67.4351 324.536 68.1265C324.923 68.8039 325.428 69.3155 326.051 69.6612C326.688 69.993 327.38 70.1589 328.127 70.1589Z" fill="white"/>
<path d="M345.572 59.7271C346.928 59.7271 348.035 60.1488 348.893 60.9922C349.751 61.8217 350.18 63.0315 350.18 64.6215V71.2581H348.748V64.7874C348.748 63.5569 348.437 62.6167 347.814 61.9669C347.205 61.3171 346.368 60.9922 345.302 60.9922C344.209 60.9922 343.337 61.3378 342.687 62.0291C342.036 62.7204 341.711 63.7367 341.711 65.0778V71.2581H340.258V59.9345H341.711V61.8632C342.071 61.1719 342.59 60.6465 343.268 60.287C343.946 59.9137 344.714 59.7271 345.572 59.7271Z" fill="white"/>
<path d="M361.07 71.424C359.769 71.424 358.704 71.1267 357.874 70.5322C357.057 69.9239 356.6 69.1012 356.504 68.0642H357.998C358.067 68.7002 358.365 69.2187 358.891 69.6197C359.43 70.0068 360.15 70.2004 361.049 70.2004C361.838 70.2004 362.454 70.0137 362.897 69.6404C363.354 69.2671 363.582 68.8039 363.582 68.2509C363.582 67.8638 363.457 67.5458 363.208 67.2969C362.959 67.048 362.641 66.8544 362.253 66.7162C361.88 66.5641 361.368 66.4051 360.717 66.2392C359.873 66.018 359.188 65.7967 358.662 65.5755C358.136 65.3543 357.687 65.0294 357.313 64.6008C356.953 64.1583 356.773 63.5707 356.773 62.838C356.773 62.2849 356.939 61.7733 357.272 61.3032C357.604 60.8332 358.074 60.4599 358.683 60.1833C359.292 59.9068 359.984 59.7685 360.759 59.7685C361.977 59.7685 362.959 60.0796 363.706 60.7018C364.454 61.3102 364.855 62.1536 364.91 63.232H363.457C363.416 62.5683 363.153 62.036 362.669 61.6351C362.198 61.2203 361.548 61.0129 360.717 61.0129C359.984 61.0129 359.389 61.1857 358.932 61.5314C358.476 61.877 358.247 62.3056 358.247 62.8172C358.247 63.2596 358.379 63.626 358.642 63.9164C358.918 64.1929 359.257 64.4141 359.659 64.58C360.06 64.7321 360.6 64.905 361.278 65.0985C362.094 65.3197 362.745 65.534 363.229 65.7414C363.713 65.9488 364.128 66.253 364.474 66.654C364.82 67.0549 365 67.5872 365.014 68.2509C365.014 68.8592 364.848 69.4054 364.516 69.8893C364.184 70.3594 363.72 70.7327 363.125 71.0092C362.53 71.2857 361.845 71.424 361.07 71.424Z" fill="white"/>
</svg>
