<svg width="373" height="81" viewBox="0 0 373 81" fill="none" xmlns="http://www.w3.org/2000/svg">
<path d="M54.5488 1.74718L34.2602 13.5534C33.9665 13.7243 33.7858 14.0386 33.7858 14.3786V34.221C33.7858 34.5678 33.5979 34.8873 33.2949 35.0555L23.9405 40.2509C23.3048 40.604 22.5239 40.1439 22.5239 39.4163V17.3272C22.5239 16.5996 21.743 16.1396 21.1073 16.4926L0.490944 27.9427C0.187951 28.111 0 28.4305 0 28.7773V53.1947C0 53.9182 0.772915 54.3786 1.40841 54.0338L9.5407 49.6204C10.1762 49.2755 10.9491 49.736 10.9491 50.4595V80.0441C10.9491 80.778 11.7423 81.2374 12.3781 80.8716L33.3073 68.8338C33.6033 68.6635 33.7858 68.3479 33.7858 68.0062V40.0213C33.7858 39.6823 33.9655 39.3687 34.2579 39.1975L54.2487 27.4922C54.8845 27.1199 55.6841 27.5788 55.6841 28.316V80.0327C55.6841 80.7691 56.4822 81.2281 57.118 80.8573L77.7344 68.8347C78.0276 68.6637 78.208 68.3497 78.208 68.01V15.8999C78.208 15.7719 78.181 15.6421 78.1307 15.5244C73.1078 3.76685 67.8481 0.90651 54.9764 1.61956C54.8269 1.62784 54.6782 1.6719 54.5488 1.74718Z" fill="#0A69E1"/>
<path d="M139.007 49.2414H131.722L109.804 16.0514V49.2414H102.519V4.73229H109.804L131.722 37.8583V4.73229H139.007V49.2414Z" fill="white"/>
<path d="M161.938 49.8169C158.615 49.8169 155.612 49.0709 152.928 47.5787C150.244 46.0439 148.135 43.9122 146.602 41.1837C145.068 38.4126 144.301 35.2151 144.301 31.5912C144.301 28.01 145.089 24.8339 146.666 22.0627C148.242 19.2915 150.393 17.1599 153.12 15.6677C155.846 14.1756 158.892 13.4295 162.258 13.4295C165.623 13.4295 168.669 14.1756 171.396 15.6677C174.122 17.1599 176.273 19.2915 177.85 22.0627C179.426 24.8339 180.214 28.01 180.214 31.5912C180.214 35.1724 179.405 38.3486 177.786 41.1198C176.167 43.8909 173.952 46.0439 171.14 47.5787C168.371 49.0709 165.304 49.8169 161.938 49.8169ZM161.938 43.4859C163.813 43.4859 165.559 43.0383 167.178 42.143C168.839 41.2477 170.181 39.9047 171.204 38.1141C172.226 36.3235 172.737 34.1492 172.737 31.5912C172.737 29.0332 172.248 26.8803 171.268 25.1323C170.288 23.3417 168.989 21.9988 167.37 21.1035C165.751 20.2082 164.004 19.7605 162.13 19.7605C160.255 19.7605 158.509 20.2082 156.89 21.1035C155.314 21.9988 154.057 23.3417 153.12 25.1323C152.182 26.8803 151.714 29.0332 151.714 31.5912C151.714 35.3856 152.672 38.3273 154.589 40.4163C156.549 42.4627 158.999 43.4859 161.938 43.4859Z" fill="white"/>
<path d="M199.119 42.7185L209.088 14.005H216.82L203.4 49.2414H194.71L181.354 14.005H189.15L199.119 42.7185Z" fill="white"/>
<path d="M217.99 31.4633C217.99 27.9248 218.715 24.7912 220.163 22.0627C221.654 19.3342 223.656 17.2238 226.17 15.7317C228.726 14.1969 231.538 13.4295 234.605 13.4295C237.374 13.4295 239.781 13.9837 241.826 15.0922C243.913 16.158 245.575 17.5009 246.81 19.121V14.005H254.159V49.2414H246.81V43.9975C245.575 45.6602 243.892 47.0458 241.762 48.1542C239.632 49.2627 237.204 49.8169 234.477 49.8169C231.452 49.8169 228.683 49.0495 226.17 47.5147C223.656 45.9373 221.654 43.763 220.163 40.9919C218.715 38.1781 217.99 35.0019 217.99 31.4633ZM246.81 31.5912C246.81 29.1611 246.299 27.0508 245.276 25.2602C244.297 23.4696 242.997 22.1053 241.378 21.1674C239.76 20.2295 238.013 19.7605 236.138 19.7605C234.264 19.7605 232.517 20.2295 230.899 21.1674C229.28 22.0627 227.959 23.4056 226.937 25.1962C225.957 26.9442 225.467 29.0332 225.467 31.4633C225.467 33.8934 225.957 36.0251 226.937 37.8583C227.959 39.6915 229.28 41.0984 230.899 42.079C232.56 43.0169 234.307 43.4859 236.138 43.4859C238.013 43.4859 239.76 43.0169 241.378 42.079C242.997 41.1411 244.297 39.7768 245.276 37.9862C246.299 36.153 246.81 34.0213 246.81 31.5912Z" fill="white"/>
<path d="M269.104 43.358H284.121V49.2414H261.819V4.79624H269.104V43.358Z" fill="white"/>
<path d="M292.012 9.33668C290.691 9.33668 289.584 8.88903 288.689 7.99373C287.795 7.09844 287.347 5.98997 287.347 4.66834C287.347 3.34671 287.795 2.23825 288.689 1.34295C289.584 0.44765 290.691 0 292.012 0C293.29 0 294.376 0.44765 295.271 1.34295C296.166 2.23825 296.613 3.34671 296.613 4.66834C296.613 5.98997 296.166 7.09844 295.271 7.99373C294.376 8.88903 293.29 9.33668 292.012 9.33668ZM295.591 14.005V49.2414H288.306V14.005H295.591Z" fill="white"/>
<path d="M321.012 13.4295C323.781 13.4295 326.252 14.005 328.425 15.1561C330.64 16.3072 332.365 18.0125 333.601 20.2721C334.836 22.5317 335.454 25.2602 335.454 28.4577V49.2414H328.233V29.5448C328.233 26.39 327.445 23.9812 325.869 22.3185C324.292 20.6132 322.141 19.7605 319.414 19.7605C316.688 19.7605 314.515 20.6132 312.896 22.3185C311.32 23.9812 310.532 26.39 310.532 29.5448V49.2414H303.247V14.005H310.532V18.0339C311.725 16.5843 313.237 15.4546 315.069 14.6445C316.944 13.8345 318.925 13.4295 321.012 13.4295Z" fill="white"/>
<path d="M356.769 31.6552L373 49.2414H363.159L350.123 34.0853V49.2414H342.838V1.9185H350.123V29.4169L362.904 14.005H373L356.769 31.6552Z" fill="white"/>
<path d="M214.896 57.4709V72.1488H213.427V57.4709H214.896Z" fill="white"/>
<path d="M227.409 60.4737C228.78 60.4737 229.899 60.9006 230.766 61.7546C231.633 62.5945 232.067 63.8194 232.067 65.4293V72.1488H230.619V65.5973C230.619 64.3514 230.304 63.3994 229.675 62.7415C229.059 62.0835 228.213 61.7546 227.136 61.7546C226.031 61.7546 225.15 62.1045 224.492 62.8045C223.835 63.5044 223.506 64.5334 223.506 65.8913V72.1488H222.037V60.6836H223.506V62.6365C223.87 61.9366 224.394 61.4046 225.08 61.0406C225.765 60.6626 226.541 60.4737 227.409 60.4737Z" fill="white"/>
<path d="M244.502 60.4737C245.873 60.4737 246.992 60.9006 247.859 61.7546C248.726 62.5945 249.16 63.8194 249.16 65.4293V72.1488H247.712V65.5973C247.712 64.3514 247.397 63.3994 246.768 62.7415C246.152 62.0835 245.306 61.7546 244.229 61.7546C243.124 61.7546 242.243 62.1045 241.585 62.8045C240.928 63.5044 240.599 64.5334 240.599 65.8913V72.1488H239.13V60.6836H240.599V62.6365C240.963 61.9366 241.487 61.4046 242.173 61.0406C242.858 60.6626 243.634 60.4737 244.502 60.4737Z" fill="white"/>
<path d="M261.238 72.3168C260.161 72.3168 259.189 72.0788 258.322 71.6028C257.468 71.1129 256.79 70.4269 256.286 69.545C255.797 68.6491 255.552 67.6061 255.552 66.4162C255.552 65.2263 255.804 64.1904 256.307 63.3085C256.811 62.4125 257.496 61.7266 258.364 61.2506C259.231 60.7606 260.203 60.5157 261.28 60.5157C262.357 60.5157 263.329 60.7606 264.197 61.2506C265.078 61.7266 265.763 62.4125 266.253 63.3085C266.757 64.1904 267.008 65.2263 267.008 66.4162C267.008 67.5921 266.757 68.6281 266.253 69.524C265.749 70.4199 265.057 71.1129 264.176 71.6028C263.294 72.0788 262.315 72.3168 261.238 72.3168ZM261.238 71.0359C261.994 71.0359 262.693 70.8679 263.336 70.5319C263.98 70.182 264.497 69.664 264.889 68.978C265.295 68.2781 265.498 67.4242 265.498 66.4162C265.498 65.4083 265.302 64.5614 264.91 63.8754C264.518 63.1755 264.001 62.6575 263.357 62.3215C262.714 61.9715 262.015 61.7966 261.259 61.7966C260.504 61.7966 259.804 61.9715 259.161 62.3215C258.517 62.6575 258 63.1755 257.608 63.8754C257.23 64.5614 257.042 65.4083 257.042 66.4162C257.042 67.4242 257.23 68.2781 257.608 68.978C258 69.664 258.51 70.182 259.14 70.5319C259.783 70.8679 260.483 71.0359 261.238 71.0359Z" fill="white"/>
<path d="M277.571 70.7209L281.432 60.6836H282.985L278.39 72.1488H276.732L272.137 60.6836H273.711L277.571 70.7209Z" fill="white"/>
<path d="M288.119 66.3952C288.119 65.2193 288.35 64.1904 288.812 63.3085C289.287 62.4125 289.938 61.7266 290.763 61.2506C291.602 60.7606 292.547 60.5157 293.596 60.5157C294.687 60.5157 295.624 60.7676 296.407 61.2716C297.205 61.7756 297.778 62.4195 298.128 63.2035V60.6836H299.597V72.1488H298.128V69.608C297.764 70.3919 297.184 71.0429 296.386 71.5608C295.603 72.0648 294.666 72.3168 293.575 72.3168C292.54 72.3168 291.602 72.0718 290.763 71.5818C289.938 71.0919 289.287 70.3989 288.812 69.503C288.35 68.6071 288.119 67.5711 288.119 66.3952ZM298.128 66.4162C298.128 65.4923 297.939 64.6804 297.561 63.9804C297.184 63.2805 296.666 62.7415 296.009 62.3635C295.365 61.9856 294.652 61.7966 293.869 61.7966C293.057 61.7966 292.33 61.9786 291.686 62.3425C291.043 62.7065 290.532 63.2385 290.155 63.9384C289.791 64.6244 289.609 65.4433 289.609 66.3952C289.609 67.3332 289.791 68.1591 290.155 68.873C290.532 69.573 291.043 70.112 291.686 70.4899C292.33 70.8539 293.057 71.0359 293.869 71.0359C294.652 71.0359 295.365 70.8469 296.009 70.4689C296.666 70.091 297.184 69.552 297.561 68.852C297.939 68.1521 298.128 67.3402 298.128 66.4162Z" fill="white"/>
<path d="M308.674 61.9226V69.041C308.674 69.741 308.807 70.224 309.073 70.4899C309.339 70.7559 309.807 70.8889 310.479 70.8889H311.822V72.1488H310.248C309.213 72.1488 308.444 71.9108 307.94 71.4349C307.436 70.9449 307.185 70.147 307.185 69.041V61.9226H305.59V60.6836H307.185V57.8069H308.674V60.6836H311.822V61.9226H308.674Z" fill="white"/>
<path d="M318.793 58.5208C318.5 58.5208 318.248 58.4158 318.038 58.2058C317.828 57.9958 317.723 57.7369 317.723 57.4289C317.723 57.1209 317.828 56.8689 318.038 56.6729C318.248 56.463 318.5 56.358 318.793 56.358C319.087 56.358 319.339 56.463 319.549 56.6729C319.759 56.8689 319.864 57.1209 319.864 57.4289C319.864 57.7369 319.759 57.9958 319.549 58.2058C319.339 58.4158 319.087 58.5208 318.793 58.5208ZM319.528 60.6836V72.1488H318.059V60.6836H319.528Z" fill="white"/>
<path d="M331.684 72.3168C330.607 72.3168 329.634 72.0788 328.767 71.6028C327.914 71.1129 327.235 70.4269 326.732 69.545C326.242 68.6491 325.998 67.6061 325.998 66.4162C325.998 65.2263 326.249 64.1904 326.753 63.3085C327.256 62.4125 327.942 61.7266 328.809 61.2506C329.676 60.7606 330.649 60.5157 331.726 60.5157C332.803 60.5157 333.775 60.7606 334.642 61.2506C335.524 61.7266 336.209 62.4125 336.699 63.3085C337.202 64.1904 337.454 65.2263 337.454 66.4162C337.454 67.5921 337.202 68.6281 336.699 69.524C336.195 70.4199 335.503 71.1129 334.621 71.6028C333.74 72.0788 332.761 72.3168 331.684 72.3168ZM331.684 71.0359C332.439 71.0359 333.139 70.8679 333.782 70.5319C334.426 70.182 334.943 69.664 335.335 68.978C335.74 68.2781 335.943 67.4242 335.943 66.4162C335.943 65.4083 335.747 64.5614 335.356 63.8754C334.964 63.1755 334.447 62.6575 333.803 62.3215C333.16 61.9715 332.46 61.7966 331.705 61.7966C330.949 61.7966 330.25 61.9715 329.607 62.3215C328.963 62.6575 328.445 63.1755 328.054 63.8754C327.676 64.5614 327.487 65.4083 327.487 66.4162C327.487 67.4242 327.676 68.2781 328.054 68.978C328.445 69.664 328.956 70.182 329.586 70.5319C330.229 70.8679 330.928 71.0359 331.684 71.0359Z" fill="white"/>
<path d="M349.318 60.4737C350.689 60.4737 351.808 60.9006 352.675 61.7546C353.542 62.5945 353.976 63.8194 353.976 65.4293V72.1488H352.528V65.5973C352.528 64.3514 352.214 63.3994 351.584 62.7415C350.969 62.0835 350.122 61.7546 349.045 61.7546C347.94 61.7546 347.059 62.1045 346.401 62.8045C345.744 63.5044 345.415 64.5334 345.415 65.8913V72.1488H343.946V60.6836H345.415V62.6365C345.779 61.9366 346.304 61.4046 346.989 61.0406C347.674 60.6626 348.451 60.4737 349.318 60.4737Z" fill="white"/>
<path d="M364.984 72.3168C363.669 72.3168 362.592 72.0158 361.753 71.4139C360.928 70.7979 360.466 69.965 360.368 68.915H361.879C361.949 69.559 362.25 70.084 362.781 70.4899C363.327 70.8819 364.054 71.0779 364.963 71.0779C365.761 71.0779 366.383 70.8889 366.831 70.5109C367.292 70.133 367.523 69.664 367.523 69.104C367.523 68.7121 367.397 68.3901 367.145 68.1381C366.894 67.8861 366.572 67.6901 366.18 67.5501C365.803 67.3962 365.285 67.2352 364.628 67.0672C363.774 66.8432 363.082 66.6192 362.55 66.3952C362.019 66.1712 361.564 65.8423 361.186 65.4083C360.823 64.9603 360.641 64.3654 360.641 63.6234C360.641 63.0635 360.809 62.5455 361.144 62.0695C361.48 61.5936 361.956 61.2156 362.571 60.9356C363.187 60.6556 363.886 60.5157 364.67 60.5157C365.901 60.5157 366.894 60.8306 367.649 61.4606C368.404 62.0765 368.81 62.9305 368.866 64.0224H367.397C367.355 63.3505 367.09 62.8115 366.6 62.4055C366.124 61.9856 365.467 61.7756 364.628 61.7756C363.886 61.7756 363.285 61.9506 362.823 62.3005C362.361 62.6505 362.131 63.0845 362.131 63.6024C362.131 64.0504 362.264 64.4214 362.529 64.7154C362.809 64.9953 363.152 65.2193 363.557 65.3873C363.963 65.5413 364.509 65.7163 365.194 65.9123C366.019 66.1362 366.677 66.3532 367.166 66.5632C367.656 66.7732 368.076 67.0812 368.425 67.4871C368.775 67.8931 368.957 68.4321 368.971 69.104C368.971 69.72 368.803 70.2729 368.467 70.7629C368.132 71.2389 367.663 71.6168 367.062 71.8968C366.46 72.1768 365.768 72.3168 364.984 72.3168Z" fill="white"/>
</svg>
